<svg width="42" height="42" viewBox="0 0 42 42" fill="none" xmlns="http://www.w3.org/2000/svg">
<path d="M36.6571 14.5337C36.6395 13.2083 36.3914 11.8961 35.9239 10.6557C35.5185 9.6095 34.8993 8.65933 34.1059 7.86594C33.3125 7.07255 32.3624 6.45337 31.3161 6.04799C30.0917 5.58836 28.7982 5.33983 27.4906 5.31299C25.8071 5.23774 25.2734 5.21674 20.9999 5.21674C16.7264 5.21674 16.1786 5.21674 14.5074 5.31299C13.2004 5.34003 11.9075 5.58855 10.6836 6.04799C9.63723 6.45309 8.68692 7.07216 7.89349 7.86559C7.10006 8.65902 6.48098 9.60934 6.07588 10.6557C5.61533 11.8792 5.36734 13.1724 5.34263 14.4795C5.26738 16.1647 5.24463 16.6985 5.24463 20.972C5.24463 25.2455 5.24463 25.7915 5.34263 27.4645C5.36888 28.7735 5.61563 30.065 6.07588 31.2917C6.48166 32.3378 7.1012 33.2877 7.89489 34.0808C8.68859 34.8739 9.63899 35.4927 10.6854 35.8977C11.9059 36.3758 13.199 36.6421 14.5091 36.6852C16.1944 36.7605 16.7281 36.7832 21.0016 36.7832C25.2751 36.7832 25.8229 36.7832 27.4941 36.6852C28.8016 36.6595 30.0953 36.4115 31.3196 35.952C32.3656 35.5461 33.3155 34.9268 34.1089 34.1335C34.9022 33.3401 35.5215 32.3902 35.9274 31.3442C36.3876 30.1192 36.6344 28.8277 36.6606 27.517C36.7359 25.8335 36.7586 25.2997 36.7586 21.0245C36.7551 16.751 36.7551 16.2085 36.6571 14.5337ZM20.9894 29.0535C16.5199 29.0535 12.8991 25.4327 12.8991 20.9632C12.8991 16.4937 16.5199 12.873 20.9894 12.873C23.135 12.873 25.1928 13.7253 26.7101 15.2426C28.2273 16.7598 29.0796 18.8176 29.0796 20.9632C29.0796 23.1089 28.2273 25.1667 26.7101 26.6839C25.1928 28.2011 23.135 29.0535 20.9894 29.0535ZM29.4016 14.4602C29.1538 14.4605 28.9084 14.4118 28.6794 14.3171C28.4504 14.2224 28.2424 14.0834 28.0672 13.9082C27.8919 13.733 27.753 13.5249 27.6583 13.2959C27.5635 13.067 27.5149 12.8215 27.5151 12.5737C27.5151 12.3261 27.5639 12.0809 27.6587 11.8521C27.7534 11.6234 27.8923 11.4155 28.0674 11.2404C28.2425 11.0653 28.4504 10.9264 28.6792 10.8316C28.9079 10.7369 29.1531 10.6881 29.4008 10.6881C29.6484 10.6881 29.8936 10.7369 30.1224 10.8316C30.3511 10.9264 30.559 11.0653 30.7341 11.2404C30.9092 11.4155 31.0481 11.6234 31.1428 11.8521C31.2376 12.0809 31.2864 12.3261 31.2864 12.5737C31.2864 13.6167 30.4429 14.4602 29.4016 14.4602Z" fill="#420C2C"/>
<path d="M20.9894 26.2185C23.8918 26.2185 26.2446 23.8657 26.2446 20.9633C26.2446 18.0609 23.8918 15.708 20.9894 15.708C18.087 15.708 15.7341 18.0609 15.7341 20.9633C15.7341 23.8657 18.087 26.2185 20.9894 26.2185Z" fill="#420C2C"/>
</svg>
