<svg width="38" height="38" viewBox="0 0 38 38" fill="none" xmlns="http://www.w3.org/2000/svg">
<path fill-rule="evenodd" clip-rule="evenodd" d="M29.1381 8.9189C27.8213 7.59347 26.2546 6.5425 24.5288 5.82689C22.8029 5.11127 20.9522 4.74524 19.0839 4.74998C11.2496 4.74998 4.87192 11.1261 4.86875 18.9636C4.86875 21.4684 5.52267 23.9131 6.76558 26.0696L4.75 33.4336L12.2851 31.4561C14.3694 32.5907 16.7045 33.1856 19.0776 33.1866H19.0839C26.9167 33.1866 33.2943 26.8106 33.2975 18.9731C33.3029 17.1055 32.9381 15.2554 32.2241 13.5297C31.5102 11.8039 30.4613 10.2368 29.1381 8.9189ZM19.0839 30.7879H19.0792C16.9631 30.7881 14.8859 30.2188 13.0657 29.1396L12.635 28.8831L8.16367 30.0564L9.35592 25.6975L9.07567 25.251C7.89258 23.3675 7.26629 21.1878 7.26908 18.9636C7.27225 12.4497 12.5717 7.15032 19.0887 7.15032C20.6407 7.14687 22.1781 7.45128 23.6117 8.04593C25.0453 8.64058 26.3468 9.51367 27.4407 10.6146C28.5406 11.7104 29.4123 13.0132 30.0056 14.4479C30.5988 15.8826 30.9019 17.4206 30.8972 18.9731C30.894 25.4869 25.5946 30.7879 19.0839 30.7879ZM25.5645 21.9386C25.2082 21.7597 23.4634 20.9016 23.1372 20.7828C22.8127 20.6641 22.5767 20.6055 22.3392 20.9601C22.1017 21.3148 21.4209 22.1144 21.2135 22.3519C21.0061 22.5894 20.7987 22.6179 20.444 22.4406C20.0893 22.2632 18.9446 21.888 17.5877 20.6783C16.5316 19.7362 15.8191 18.5741 15.6117 18.2178C15.4042 17.8616 15.5895 17.67 15.7684 17.4926C15.9283 17.3343 16.1231 17.0778 16.3004 16.8704C16.4777 16.663 16.5363 16.5157 16.6551 16.2782C16.7738 16.0407 16.7152 15.8333 16.625 15.656C16.5363 15.4771 15.8254 13.7291 15.5293 13.0181C15.2427 12.3294 14.9498 12.4212 14.7313 12.4117C14.505 12.4025 14.2786 12.3983 14.0521 12.3991C13.872 12.4037 13.6948 12.4454 13.5316 12.5217C13.3684 12.598 13.2227 12.7072 13.1037 12.8424C12.7775 13.1986 11.8607 14.0568 11.8607 15.8048C11.8607 17.5528 13.1337 19.2422 13.3111 19.4797C13.4884 19.7172 15.8159 23.3035 19.3784 24.8425C20.2271 25.2082 20.8889 25.4267 21.4035 25.5914C22.2537 25.8621 23.028 25.8226 23.6407 25.7323C24.3232 25.631 25.7418 24.8741 26.0379 24.0445C26.334 23.2148 26.334 22.5039 26.2453 22.3551C26.1567 22.2062 25.9176 22.116 25.5645 21.9386Z" fill="#420C2C"/>
</svg>
