<svg width="279" height="279" viewBox="0 0 279 279" fill="none" xmlns="http://www.w3.org/2000/svg">
<g clip-path="url(#clip0_9_38)">
<path d="M54.5676 101.351C35.9367 141.496 49.9266 192.22 89.801 217.419C129.672 242.616 181.486 233.479 209.75 199.421C213.813 194.528 212.508 187.501 207.31 183.842C197.298 176.804 177.246 163.251 139.217 139.218C101.187 115.184 80.3406 102.89 69.6899 96.8707C64.1471 93.7408 57.244 95.581 54.5676 101.351Z" stroke="#CD321E" stroke-width="3" stroke-linecap="round" stroke-linejoin="round"/>
<path d="M207.013 183.635C211.639 180.454 215.5 176.285 218.316 171.427C221.131 166.57 222.831 161.147 223.291 155.552C223.752 149.957 222.961 144.329 220.978 139.077C218.994 133.825 215.867 129.08 211.822 125.186C207.778 121.293 202.918 118.348 197.594 116.565C192.27 114.782 186.617 114.205 181.043 114.878C175.469 115.55 170.115 117.454 165.368 120.452C160.621 123.45 156.601 127.467 153.599 132.21C151.105 136.144 149.36 140.506 148.453 145.075" stroke="#CD321E" stroke-width="3" stroke-linecap="round" stroke-linejoin="round"/>
<path d="M193.763 115.134C201.469 106.812 203.936 95.3293 199.038 86.0068C194.01 76.4273 182.687 71.9524 171.141 73.9677C171.237 73.0797 171.303 72.1887 171.337 71.2962C172.086 52.7332 159.519 37.1608 143.276 36.5109C128.073 35.901 115.037 48.5789 112.818 65.4315C105.598 61.6251 97.3055 61.1148 90.2532 64.8204C77.9164 71.2997 74.0446 88.217 81.6029 102.609C81.9062 103.183 82.2186 103.744 82.5492 104.291" stroke="#CD321E" stroke-width="3" stroke-linecap="round" stroke-linejoin="round"/>
<path d="M140.667 84.275C142.24 92.6351 141.61 101.261 138.838 109.303C136.067 117.346 131.249 124.529 124.86 130.145" stroke="#CD321E" stroke-width="3" stroke-linecap="round" stroke-linejoin="round"/>
<path d="M174.503 191.362C163.243 198.852 149.913 202.609 136.399 202.101" stroke="#CD321E" stroke-width="3" stroke-linecap="round" stroke-linejoin="round"/>
</g>
<defs>
<clipPath id="clip0_9_38">
<rect width="201.831" height="201.831" fill="white" transform="translate(107.824) rotate(32.2916)"/>
</clipPath>
</defs>
</svg>
