<svg width="175" height="164" viewBox="0 0 175 164" fill="none" xmlns="http://www.w3.org/2000/svg">
<path d="M8.335 54.4384C9.90651 55.9589 10.9632 57.9328 11.3572 60.0837C11.7596 62.9973 11.8496 65.9455 11.6258 68.8782C11.4772 72.4205 12.021 75.9577 13.2269 79.2916C14.4425 82.3507 16.7179 84.8704 19.6376 86.3906C19.845 86.5756 20.09 86.7135 20.3557 86.7949C20.6215 86.8763 20.9016 86.8993 21.1771 86.8622C21.4525 86.8251 21.7166 86.7289 21.9514 86.5801C22.1861 86.4313 22.3859 86.2335 22.537 86.0003C22.6881 85.7671 22.787 85.5039 22.8268 85.2288C22.8666 84.9538 22.8465 84.6734 22.7677 84.4069C22.689 84.1404 22.5535 83.894 22.3706 83.6848C22.1877 83.4755 21.9617 83.3083 21.7081 83.1946C19.8681 81.8465 18.5592 79.8956 18.0094 77.6818C17.5444 74.838 17.541 71.9378 17.9994 69.0929C18.3754 65.6352 18.2292 62.1406 17.5656 58.7264C16.7338 56.0889 15.1819 53.7361 13.0847 51.9332C10.3229 49.4855 7.02855 47.7152 3.46315 46.7629C3.26289 46.6659 3.045 46.6105 2.82268 46.6001C2.60037 46.5898 2.37828 46.6247 2.16987 46.7028C1.96146 46.7808 1.77107 46.9004 1.61026 47.0543C1.44945 47.2081 1.32157 47.393 1.23437 47.5978C1.13729 47.798 1.08189 48.0159 1.07155 48.2382C1.0612 48.4606 1.09612 48.6826 1.17419 48.8911C1.25225 49.0995 1.37183 49.2899 1.52568 49.4507C1.67953 49.6115 1.86444 49.7394 2.0692 49.8266C4.438 50.9415 6.5664 52.508 8.335 54.4384Z" fill="#CD321E" fill-opacity="0.81"/>
<path d="M35.6615 51.4642C36.3575 52.3532 36.8944 53.3018 37.4843 54.2306C38.2543 55.4806 38.7741 56.8683 39.0148 58.3167C39.3594 59.7429 39.5215 61.2072 39.4973 62.6743C39.5361 65.2012 39.4357 67.8408 39.5474 70.401C39.5336 70.9043 39.7174 71.393 40.0593 71.7625C40.4013 72.132 40.8744 72.353 41.3772 72.3781C41.6342 72.4002 41.893 72.3689 42.1373 72.2862C42.3816 72.2034 42.6062 72.071 42.7969 71.8973C42.9875 71.7236 43.1402 71.5123 43.2453 71.2767C43.3503 71.0412 43.4056 70.7864 43.4074 70.5284C43.8396 67.6435 44.7162 64.6527 45.1484 61.7678C45.3327 60.3031 45.3865 58.8249 45.3093 57.3507C44.8585 54.2504 43.5189 51.3473 41.4524 48.9925C38.4837 46.2159 35.1858 43.8135 31.6326 41.8391C31.4603 41.6971 31.2616 41.5904 31.0479 41.5252C30.8343 41.4599 30.6099 41.4374 30.3876 41.4589C30.1652 41.4803 29.9493 41.5454 29.7521 41.6503C29.5549 41.7552 29.3803 41.898 29.2383 42.0704C29.0963 42.2428 28.9896 42.4414 28.9243 42.6551C28.8591 42.8687 28.8365 43.0931 28.858 43.3154C28.8795 43.5378 28.9445 43.7537 29.0495 43.9509C29.1544 44.1481 29.2971 44.3227 29.4695 44.4647C31.5446 46.7736 33.7788 49.0228 35.6615 51.4642Z" fill="#CD321E" fill-opacity="0.81"/>
<path d="M157.948 105.08C156.561 105.324 155.195 105.674 153.862 106.126C145.723 108.63 127.17 115.64 119.422 119.026C115.402 120.895 111.429 122.565 107.455 124.235C101.353 126.521 95.3496 129.072 89.1806 131.504L53.858 145.763C52.0537 146.439 47.9146 147.989 45.0355 149.673C43.5225 150.334 42.1214 151.226 40.8827 152.317C40.6843 152.612 40.5799 152.96 40.5833 153.315C40.5868 153.67 40.6978 154.016 40.9018 154.307C40.6589 154.662 40.5379 155.086 40.5569 155.515C40.5758 155.945 40.7338 156.356 41.007 156.688C42.6545 158.348 44.6093 159.671 46.7624 160.584C49.6879 161.885 52.7268 162.914 55.8409 163.658C58.9696 164.269 62.1759 164.376 65.3383 163.973C69.8423 163.422 74.3145 162.635 78.7365 161.617C87.2265 159.719 95.5613 157.183 103.67 154.033C111.748 150.926 119.657 147.398 127.365 143.463C134.005 140.318 140.422 136.722 146.57 132.699C150.67 129.803 154.373 126.382 157.583 122.523C159.665 119.19 161.179 115.535 162.064 111.707C162.35 110.507 162.438 109.268 162.324 108.04C162.172 107.226 161.747 106.488 161.118 105.95C160.681 105.59 160.172 105.326 159.626 105.176C159.08 105.027 158.508 104.994 157.948 105.08ZM152.246 118.289C149.426 121.8 146.166 124.933 142.546 127.611C136.766 131.565 130.704 135.089 124.409 138.156C117.004 142.214 109.379 145.858 101.57 149.071C93.7893 152.297 85.784 154.952 77.6174 157.014C73.4172 158.111 69.1646 158.997 64.8756 159.669C62.162 160.026 59.4101 159.975 56.7113 159.52C53.8639 158.907 51.0815 158.025 48.402 156.883C46.7506 156.26 45.232 155.33 43.9262 154.142C45.5836 153.221 47.3115 152.432 49.0937 151.783L55.3555 149.438L91.1154 136.346L109.635 129.409C113.704 127.885 117.803 126.229 121.934 124.439C129.277 121.265 146.397 115.276 154.795 112.494C154.278 114.555 153.416 116.515 152.246 118.289Z" fill="#CD321E" fill-opacity="0.81"/>
<path d="M132.995 24.5673C129.472 22.6476 125.385 22.0353 121.455 22.8385C120.15 23.2582 118.906 23.8463 117.753 24.588C117.064 21.8932 115.508 19.4995 113.326 17.7749C109.675 15.298 105.234 14.2657 100.865 14.8785C99.7037 15.0055 98.559 15.2518 97.4486 15.6134C96.2919 16.0366 95.212 16.6455 94.2512 17.4162C92.7594 18.4402 91.5345 19.8064 90.6789 21.4008C89.8233 22.9951 89.3618 24.771 89.3331 26.5802C89.5944 37.1323 101.346 40.2341 101.558 40.1546C99.3706 43.8773 97.6494 47.855 96.4333 51.998C96.1673 52.9758 96.0771 53.993 96.1669 55.0023C88.168 56.0997 80.8975 60.2313 75.861 66.5415L75.5026 67.0388C73.9266 67.257 72.3634 67.5597 70.8198 67.9457C67.6559 68.7072 64.2996 69.6013 63.3246 69.906C61.121 70.6838 59.0009 71.6807 56.9962 72.8815C54.0438 74.6579 51.2671 76.7111 48.7035 79.0133C43.8311 83.3384 39.9203 88.6375 37.2236 94.5684C34.5465 100.497 33.0979 106.906 32.9651 113.409C32.884 115.865 32.9562 118.324 33.1812 120.771C33.3999 123.25 33.7958 125.711 34.3656 128.133C35.2193 131.83 36.5559 135.399 38.341 138.747C39.537 141.337 41.624 143.412 44.2216 144.592C44.686 144.802 45.2149 144.82 45.6923 144.641C46.1698 144.462 46.5569 144.102 46.7688 143.638C46.9644 143.172 46.9745 142.649 46.7972 142.175C46.6199 141.702 46.2684 141.314 45.8147 141.091C44.1948 140.117 42.966 138.608 42.341 136.825C40.9723 133.791 40.0165 130.588 39.4993 127.3C39.1513 125.093 38.9439 122.867 38.8784 120.634C38.8073 118.396 38.8569 116.155 39.0269 113.922C39.3524 108.161 40.7444 102.51 43.132 97.2567C45.3758 92.015 48.6039 87.2522 52.6415 83.2263C54.4413 81.3419 56.3724 79.5873 58.4202 77.9757C60.3989 76.4455 62.5716 75.184 64.8815 74.2242L71.8332 71.6204L72.6292 71.3222C68.704 78.1133 67.0099 85.9654 67.7857 93.7708C68.4467 98.3673 70.0944 102.766 72.6158 106.666C74.9657 110.555 77.9948 113.991 81.5589 116.81L86.7973 119.81C87.1455 120.097 87.5934 120.234 88.0424 120.19C88.4914 120.147 88.9049 119.927 89.1917 119.579C89.4786 119.231 89.6153 118.783 89.572 118.334C89.5286 117.885 89.3087 117.471 88.9605 117.184L83.8946 113.999C80.8902 111.353 78.3767 108.198 76.4699 104.678C74.5459 101.231 73.4018 97.4046 73.1182 93.4678C72.728 85.1446 75.5412 76.9882 80.9795 70.6754C83.4442 67.5875 86.6119 65.1341 90.2181 63.5202C93.8243 61.9063 97.7643 61.1786 101.709 61.398C102.91 61.4829 104.087 61.7797 105.184 62.2748C107.183 63.0777 109.119 64.0318 110.973 65.1289C111.698 65.5282 112.358 66.0361 112.929 66.6352C113.992 67.8825 114.985 69.1869 115.905 70.5428C118.514 74.1829 120.284 78.3558 121.087 82.7615C122.133 87.0541 121.976 91.552 120.631 95.7607C119.928 97.5976 119.151 99.4013 118.268 101.245C113.489 111.264 113.285 106.681 112.303 109.228C112.092 109.692 112.075 110.221 112.253 110.699C112.432 111.176 112.793 111.563 113.257 111.775C113.719 111.976 114.223 112.061 114.725 112.02C115.227 111.98 115.712 111.816 116.135 111.544C117.262 110.809 118.197 109.816 118.862 108.647C119.891 106.87 120.973 105.073 121.909 103.209C122.844 101.346 123.833 99.4627 124.643 97.5861C126.644 92.597 127.202 87.1459 126.254 81.8548C125.598 77.4059 124.134 73.1144 121.935 69.192C123.183 69.5967 124.391 70.1168 125.542 70.7454C127.377 71.7521 129.079 72.9849 130.608 74.415C132.465 76.1577 134.14 78.085 135.606 80.1671C137.106 82.2397 138.416 84.442 139.524 86.7479C141.801 91.4958 143.077 96.6617 143.272 101.924C143.249 102.177 143.279 102.432 143.361 102.672C143.443 102.913 143.574 103.133 143.747 103.32C143.919 103.506 144.129 103.654 144.362 103.754C144.596 103.855 144.848 103.905 145.102 103.901C145.363 103.923 145.625 103.891 145.874 103.807C146.122 103.723 146.351 103.59 146.546 103.415C146.741 103.24 146.898 103.027 147.008 102.789C147.118 102.551 147.178 102.294 147.185 102.032C147.918 96.1454 147.294 90.1694 145.361 84.5614C144.296 81.6864 142.833 78.9755 141.013 76.5081C139.127 74.08 136.898 71.9389 134.397 70.1518C132.28 68.6785 129.967 67.5078 127.527 66.6739C125.08 65.7524 122.473 65.3298 119.86 65.4307C119.25 64.4924 118.589 63.5887 117.878 62.724C116.902 61.5894 115.76 60.6095 114.49 59.8177L113.602 59.5455L115.48 56.4821C116.641 53.929 117.524 51.1173 118.58 48.604C119.109 47.424 119.765 46.3055 120.538 45.2687C124.891 46.533 129.523 46.4632 133.836 45.0682C135.653 44.1224 137.131 42.634 138.063 40.8099C138.996 38.9858 139.337 36.9165 139.039 34.8895C139.095 32.7764 138.558 30.69 137.49 28.866C136.421 27.0419 134.864 25.5529 132.995 24.5673ZM133.256 35.1194C133.513 38.7143 132.173 40.3055 130.057 40.7955C127.082 41.2123 124.055 41.074 121.13 40.3875C120.579 40.2637 120.008 40.2679 119.459 40.3999C118.911 40.532 118.4 40.7883 117.966 41.149C116.904 42.401 115.997 43.7769 115.265 45.2468C113.818 48.3303 113.028 51.7125 111.707 54.8093L110.16 57.6274C109.318 57.1562 108.443 56.7579 107.567 56.3597C105.862 55.6294 104.055 55.1635 102.209 54.9781C101.361 54.9205 100.511 54.9157 99.6622 54.9639C99.6634 53.887 99.9063 52.8241 100.373 51.8536C101.444 49.2683 102.713 46.7698 104.17 44.3804C104.455 43.8499 105.464 42.5039 105.895 41.5557C106.135 40.9309 106.215 40.2561 106.128 39.5926C105.904 38.6039 105.299 37.7434 104.444 37.1977C103.098 36.189 100.538 35.3325 99.7959 34.6425C97.6447 32.8834 96.0511 30.5371 95.2089 27.889C94.7388 25.8262 95.5818 23.8766 98.0962 22.0271C98.6057 21.776 99.139 21.5762 99.6882 21.4308C100.285 21.2546 100.903 21.1655 101.525 21.1662C104.372 20.7899 107.257 21.4758 109.629 23.0927C110.605 23.945 111.354 25.0264 111.809 26.2398C112.263 27.4533 112.409 28.7606 112.233 30.0443C112.187 30.7275 114.42 34.9133 117.923 32.6331C119.623 31.3 121.478 30.1783 123.449 29.2925C125.773 28.6539 128.25 28.8884 130.413 29.9518C131.315 30.4691 132.058 31.225 132.56 32.1365C133.061 33.048 133.302 34.0801 133.256 35.1194Z" fill="#CD321E" fill-opacity="0.81"/>
</svg>
