<svg width="27" height="73" viewBox="0 0 27 73" fill="none" xmlns="http://www.w3.org/2000/svg">
<path d="M13.3326 2.89327C9.53737 5.07403 6.57204 7.47677 4.39697 10.6462C2.3963 13.5615 1.91072 17.9554 2.01486 21.4982C2.10564 24.5867 7.80705 22.2936 11.6741 21.1503C16.719 19.6587 20.7201 21.7995 21.5156 23.0654C22.3112 24.3313 22.9014 25.8068 22.757 27.4622C22.4055 31.491 16.5078 32.284 11.6206 40.0338C9.90185 42.7592 9.69735 45.1999 9.95273 47.181C10.3177 50.0121 15.1436 50.9607 17.9092 52.4979C20.0094 53.6654 22.1112 54.8973 23.4272 56.1772C24.0141 56.7481 24.1261 57.4405 24.1124 58.067C24.053 60.7685 21.2711 63.3893 19.6345 66.3674C18.4772 67.0692 17.2075 67.6587 15.8332 68.6572C15.0871 69.2608 14.2422 70.0615 11.5016 70.8359" stroke="white" stroke-width="4" stroke-linecap="round"/>
</svg>
