<svg width="258" height="258" viewBox="0 0 258 258" fill="none" xmlns="http://www.w3.org/2000/svg">
<g clip-path="url(#clip0_9_54)">
<path d="M159.785 118.066L182.249 206.024C182.776 208.08 182.487 210.259 181.443 212.107C180.398 213.954 178.679 215.325 176.646 215.932L109.132 236.084C107.098 236.69 104.909 236.486 103.023 235.513C101.137 234.541 99.7003 232.876 99.0148 230.867L69.5918 144.986" stroke="#CD321E" stroke-width="2" stroke-linecap="round" stroke-linejoin="round"/>
<path d="M131.158 186.629C131.469 187.672 132.182 188.549 133.14 189.067C134.098 189.584 135.222 189.7 136.266 189.388C137.309 189.077 138.186 188.364 138.704 187.406C139.221 186.448 139.337 185.324 139.026 184.28C138.714 183.237 138.001 182.36 137.043 181.842C136.085 181.325 134.961 181.209 133.917 181.52C132.874 181.832 131.997 182.545 131.48 183.503C130.962 184.461 130.846 185.585 131.158 186.629Z" stroke="#CD321E" stroke-width="2" stroke-linecap="round" stroke-linejoin="round"/>
<path d="M117.347 212.191C117.658 213.234 118.372 214.111 119.33 214.629C120.288 215.146 121.412 215.262 122.455 214.951C123.499 214.639 124.376 213.926 124.893 212.968C125.411 212.01 125.526 210.886 125.215 209.843C124.904 208.799 124.19 207.922 123.233 207.405C122.275 206.887 121.15 206.771 120.107 207.083C119.063 207.394 118.187 208.107 117.669 209.065C117.151 210.023 117.036 211.148 117.347 212.191Z" stroke="#CD321E" stroke-width="2" stroke-linecap="round" stroke-linejoin="round"/>
<path d="M153.571 197.095C153.882 198.138 154.595 199.015 155.553 199.533C156.511 200.05 157.636 200.166 158.679 199.855C159.722 199.543 160.599 198.83 161.117 197.872C161.634 196.914 161.75 195.79 161.439 194.746C161.127 193.703 160.414 192.826 159.456 192.309C158.498 191.791 157.374 191.675 156.33 191.987C155.287 192.298 154.41 193.011 153.893 193.969C153.375 194.927 153.259 196.051 153.571 197.095Z" stroke="#CD321E" stroke-width="2" stroke-linecap="round" stroke-linejoin="round"/>
<path d="M64.9797 144.22C63.9253 144.539 62.8149 144.628 61.7233 144.481C60.6317 144.335 59.5841 143.956 58.6512 143.37C57.7183 142.785 56.9216 142.006 56.3148 141.087C55.708 140.168 55.3052 139.129 55.1335 138.041C53.0966 123.9 56.2101 109.497 63.9063 97.4589C71.6024 85.4212 83.3687 76.5504 97.0595 72.464C110.75 68.3776 125.454 69.3478 138.489 75.1977C151.524 81.0476 162.023 91.3876 168.071 104.332C168.523 105.336 168.756 106.426 168.752 107.527C168.748 108.629 168.509 109.716 168.049 110.717C167.59 111.719 166.922 112.61 166.089 113.331C165.256 114.052 164.279 114.586 163.222 114.897L64.9797 144.22Z" stroke="#CD321E" stroke-width="2" stroke-linecap="round" stroke-linejoin="round"/>
<path d="M85.9681 190.414C89.2146 183.26 94.4177 177.17 100.977 172.846C110.665 168.365 120.75 164.8 131.102 162.198C142.635 156.792 153.432 149.94 163.234 141.807" stroke="#CD321E" stroke-width="2" stroke-linecap="round" stroke-linejoin="round"/>
<path d="M107.065 169.751L112.7 39.3551C112.791 37.2271 113.541 35.1801 114.846 33.4971C116.151 31.8142 117.948 30.5786 119.986 29.9615L163.293 17.0353C165.382 16.4118 167.633 16.6437 169.551 17.6799C171.469 18.7161 172.897 20.4718 173.52 22.5607L174.695 26.4947C175.318 28.5836 175.086 30.8347 174.05 32.7526C173.014 34.6706 171.258 36.0984 169.169 36.7219L132.912 47.5438L127.876 163.36" stroke="#CD321E" stroke-width="2" stroke-linecap="round" stroke-linejoin="round"/>
</g>
<defs>
<clipPath id="clip0_9_54">
<rect width="207" height="207" fill="white" transform="translate(0 59.2037) rotate(-16.6191)"/>
</clipPath>
</defs>
</svg>
