<svg width="986" height="1028" viewBox="0 0 986 1028" fill="none" xmlns="http://www.w3.org/2000/svg">
<path d="M493.17 0.27994C629.232 -7.43449 700.477 146.854 700.477 146.854C700.477 146.854 885.945 125.254 963.194 257.171C1040.44 389.087 896.675 514.061 896.675 514.061C896.675 514.061 1025.03 656.007 963.194 770.952C901.357 885.897 700.477 856.582 700.477 856.582C700.477 856.582 596.824 1021.67 493.17 1027.84C389.516 1034.01 287.419 856.582 287.419 856.582C287.419 856.582 83.7644 857.888 23.1462 770.952C-37.472 684.016 90.8845 514.061 90.8845 514.061C90.8845 514.061 -55.3218 373.658 23.1462 257.171C101.614 140.683 287.419 176.169 287.419 176.169C287.419 176.169 357.108 7.99437 493.17 0.27994Z" fill="#D9D9D9"/>
</svg>
